# xmcd
#
# Track frame offsets:
#	150
#	9522
#	19429
#	29077
#	39423
#	50318
#	60637
#	70011
#	79219
#	88319
#	100452
#	109554
#	121109
#	132005
#	143003
#	154809
#	165899
#	176259
#	188192
#	198348
#	209023
#	220425
#	231257
#	242009
#	253141
#	263989
#	275509
#	285841
#	296943
#	308155
#	319416
#	330397
#	340116
#
# Disc length: 4712 seconds
#
# Revision: 0
# Processed by: cddbd v1.5.2PL0 Copyright (c) Steve Scherf et al.
# Submitted via: EasyCDDAExtractor 12.0.1.1
#
DISCID=e7126621
DTITLE=Buck Owens - Act Naturally: The Buck Owens Recordings 1953-1964 [cd2]
DYEAR=2008
DGENRE=Country
TTITLE0=I Only Know That I Love You
TTITLE1=Sweet Thing
TTITLE2=I Know What It Means
TTITLE3=Come Back
TTITLE4=Walk The Floors
TTITLE5=My Everlasting Love
TTITLE6=Second Fiddle
TTITLE7=I'll Take A Chance On Loving You
TTITLE8=Tired Of Livin'
TTITLE9=Under Your Spell Again
TTITLE10=I'll Give My Heart To You
TTITLE11=I Gotta A Right To Know
TTITLE12=Above And Beyond
TTITLE13=Excuse Me(I Think I've Got A Heartache)
TTITLE14=Take Me Back Again
TTITLE15='til These Dreams Come True
TTITLE16=Think It Over
TTITLE17=Foolin' Around
TTITLE18=Nobody's Fool But Yours
TTITLE19=High As The Mountains
TTITLE20=Loose Talk
TTITLE21=Mental Cruelty
TTITLE22=I Don't Believe I'll Fall In Love Today
TTITLE23=Pick Me Up On Your Way Down
TTITLE24=Let's Agree To Disagree
TTITLE25=The Keeper Of The Key
TTITLE26=Lyin' Again
TTITLE27=Heartaches For A Dime
TTITLE28=Heartaches By The Number
TTITLE29=The One You Slip Around With
TTITLE30=The Key's In The Mailbox
TTITLE31=I'll Catch You When You Fall
TTITLE32=Save The Last Dance For Me
EXTD=
EXTT0=
EXTT1=
EXTT2=
EXTT3=
EXTT4=
EXTT5=
EXTT6=
EXTT7=
EXTT8=
EXTT9=
EXTT10=
EXTT11=
EXTT12=
EXTT13=
EXTT14=
EXTT15=
EXTT16=
EXTT17=
EXTT18=
EXTT19=
EXTT20=
EXTT21=
EXTT22=
EXTT23=
EXTT24=
EXTT25=
EXTT26=
EXTT27=
EXTT28=
EXTT29=
EXTT30=
EXTT31=
EXTT32=
PLAYORDER=
